<svg id="Layer_1" xmlns="http://www.w3.org/2000/svg" viewBox="0 0 512 512"><style>.st0{fill:url(#SVGID_1_)}.st1{fill:url(#SVGID_2_)}.st2{fill:url(#SVGID_3_)}.st3{fill:url(#SVGID_4_)}</style><linearGradient id="SVGID_1_" gradientUnits="userSpaceOnUse" x1="-2.346" y1="588.574" x2="353.244" y2="229.204" gradientTransform="translate(0 2)"><stop offset="0" stop-color="#7600ff"/><stop offset="1" stop-color="#ea117e"/></linearGradient><path class="st0" d="M308 475c-16.3 0-29.4-13.2-29.4-29.5 0-13.3 8.9-24.9 21.7-28.4 72.6-19.9 122.9-85.8 123-161 0-73.9-49.5-139.8-120.3-160.3-15.6-4.5-24.6-20.8-20.1-36.4 4.5-15.6 20.8-24.6 36.4-20.1C415.2 67 482.1 156.2 482.1 256.1c0 101.7-68.5 191.2-166.5 217.8-2.4.8-5 1.1-7.6 1.1z"/><linearGradient id="SVGID_2_" gradientUnits="userSpaceOnUse" x1="5.166" y1="596.006" x2="360.756" y2="236.636" gradientTransform="translate(0 2)"><stop offset="0" stop-color="#7600ff"/><stop offset="1" stop-color="#ea117e"/></linearGradient><path class="st1" d="M362 323.9c-12.7 10.2-31.2 8.2-41.4-4.5-7.3-9.1-8.6-21.6-3.2-32 10.2-19.7 10.3-43.2.1-63-7.5-14.4-1.8-32.2 12.7-39.7s32.2-1.8 39.7 12.7c18.9 36.8 18.8 80.4-.2 117.1-1.9 3.7-4.5 6.9-7.7 9.4z"/><linearGradient id="SVGID_3_" gradientUnits="userSpaceOnUse" x1="-74.669" y1="517.021" x2="280.921" y2="157.651" gradientTransform="translate(0 2)"><stop offset="0" stop-color="#7600ff"/><stop offset="1" stop-color="#ea117e"/></linearGradient><path class="st2" d="M204.2 475c-2.6 0-5.2-.3-7.7-1C98.3 447.5 29.8 357.9 29.8 256.1 29.8 154 98.6 64.3 197.1 38c15.7-4.2 31.9 5.1 36.1 20.8 4.2 15.7-5.1 31.9-20.8 36.1-72.9 19.6-123.6 85.7-123.7 161.2 0 75.2 50.6 141.5 123.2 161 15.7 4.2 25 20.4 20.8 36.1-3.6 12.8-15.2 21.8-28.5 21.8z"/><linearGradient id="SVGID_4_" gradientUnits="userSpaceOnUse" x1="-83.247" y1="508.533" x2="272.343" y2="149.163" gradientTransform="translate(0 2)"><stop offset="0" stop-color="#7600ff"/><stop offset="1" stop-color="#ea117e"/></linearGradient><path class="st3" d="M186.7 324.2c-1.6 1.2-3.2 2.3-5 3.2-14.4 7.5-32.2 1.8-39.6-12.7-18.9-36.8-18.8-80.4.2-117.1 7.5-14.4 25.2-20.1 39.7-12.6 14.4 7.5 20.1 25.2 12.6 39.7-10.3 19.8-10.3 43.3-.1 63.1 6.3 12.5 3.1 27.7-7.8 36.4z"/></svg>