<svg xmlns="http://www.w3.org/2000/svg" viewBox="0 0 200 200"><defs><style>.cls-1{fill:#d8e0f0;}.cls-2{fill:#c17bff;}</style></defs><g id="bg"><rect class="cls-1" x="-71.5" width="343" height="200"/></g><g id="Logo"><path class="cls-2" d="M111.5,148.41a6.51,6.51,0,0,1-1.7-12.79,36.89,36.89,0,0,0,.59-71A6.5,6.5,0,0,1,114,52.11a49.9,49.9,0,0,1-.8,96.07A6.27,6.27,0,0,1,111.5,148.41Z"/><path class="cls-2" d="M123.43,115a6.51,6.51,0,0,1-9.86-8.06,15.22,15.22,0,0,0,0-13.93,6.5,6.5,0,1,1,11.56-6,28.21,28.21,0,0,1,0,25.88A6.23,6.23,0,0,1,123.43,115Z"/><path class="cls-2" d="M88.54,148.41a6.67,6.67,0,0,1-1.7-.22A49.91,49.91,0,0,1,87,51.81a6.51,6.51,0,1,1,3.36,12.58,36.88,36.88,0,0,0-.12,71.22,6.51,6.51,0,0,1-1.69,12.8Z"/><path class="cls-2" d="M84.69,115.09a7.68,7.68,0,0,1-1.1.71A6.5,6.5,0,0,1,74.83,113a28.21,28.21,0,0,1,0-25.88,6.51,6.51,0,0,1,11.56,6,15.18,15.18,0,0,0,0,13.94A6.53,6.53,0,0,1,84.69,115.09Z"/></g></svg>