<svg id="Layer_1" data-name="Layer 1" xmlns="http://www.w3.org/2000/svg" xmlns:xlink="http://www.w3.org/1999/xlink" viewBox="0 0 512 512"><defs><style>.cls-1{fill:url(#linear-gradient);}</style><linearGradient id="linear-gradient" x1="35.71" y1="256.49" x2="475.71" y2="256.49" gradientUnits="userSpaceOnUse"><stop offset="0" stop-color="#f16078"/><stop offset="1" stop-color="#8d6fb1"/></linearGradient></defs><path class="cls-1" d="M255.71,471.59c-58.77,0-114-22.37-155.57-63s-64.43-94.65-64.43-152.1S58.59,145,100.14,104.38s96.8-63,155.57-63,114,22.37,155.56,63S475.71,199,475.71,256.49,452.82,368,411.27,408.59,314.47,471.59,255.71,471.59Zm0-400.2c-104.39,0-189.31,83-189.31,185.1s84.92,185.09,189.31,185.09S445,358.55,445,256.49,360.09,71.39,255.71,71.39Z"/></svg>